<?xml version="1.0" encoding="UTF-8"?>
<svg xmlns="http://www.w3.org/2000/svg" viewBox="0 0 900 550" width="900" height="550">
  <style>
    text { font-family: -apple-system, BlinkMacSystemFont, 'Segoe UI', Roboto, Helvetica, Arial, sans-serif; fill: #c9d1d9; }
    .title { font-size: 15px; font-weight: 600; fill: #f0f6fc; }
    .subtitle { font-size: 11px; fill: #8b949e; }
    .legend-title { font-size: 11px; font-weight: 600; fill: #e6edf3; }
    .legend-tick { font-size: 10px; fill: #8b949e; }
    .mesh-wire { stroke: rgba(13, 17, 23, 0.45); stroke-width: 0.8; }
    .undeformed-wire { stroke: #58a6ff; stroke-width: 1.0; stroke-dasharray: 4,3; fill: none; opacity: 0.7; }
  </style>
  <rect width="900" height="550" fill="#0d1117" rx="8" stroke="#30363d" stroke-width="1"/>
  <text x="450" y="28" text-anchor="middle" class="title">VV-L2-09: Hydrostatic Water Column Spatial Discretization & Pressure Field</text>
  <line x1="80" y1="349.5" x2="750" y2="349.5" stroke="#30363d" stroke-dasharray="4,4" stroke-width="1"/>
  <text x="72" y="353.5" text-anchor="end" class="legend-tick">199445.82</text>
  <line x1="80" y1="279.625" x2="750" y2="279.625" stroke="#30363d" stroke-dasharray="4,4" stroke-width="1"/>
  <text x="72" y="283.625" text-anchor="end" class="legend-tick">2626004.43</text>
  <line x1="80" y1="209.75" x2="750" y2="209.75" stroke="#30363d" stroke-dasharray="4,4" stroke-width="1"/>
  <text x="72" y="213.75" text-anchor="end" class="legend-tick">5052563.03</text>
  <line x1="80" y1="139.875" x2="750" y2="139.875" stroke="#30363d" stroke-dasharray="4,4" stroke-width="1"/>
  <text x="72" y="143.875" text-anchor="end" class="legend-tick">7479121.64</text>
  <line x1="80" y1="70" x2="750" y2="70" stroke="#30363d" stroke-dasharray="4,4" stroke-width="1"/>
  <text x="72" y="74" text-anchor="end" class="legend-tick">9905680.25</text>
  <!-- 1D CFD Cell Averaged Finite-Volume Profile -->
  <path d="M 80 70 L 86.7 70 L 86.7 75.3522 L 93.4 75.3522 L 93.4 75.9751 L 100.1 75.9751 L 100.1 80.7602 L 106.8 80.7602 L 106.8 81.8711 L 113.5 81.8711 L 113.5 86.2304 L 120.2 86.2304 L 120.2 87.7458 L 126.9 87.7458 L 126.9 91.7381 L 133.6 91.7381 L 133.6 93.5424 L 140.3 93.5424 L 140.3 97.2729 L 147 97.2729 L 147 99.3623 L 153.7 99.3623 L 153.7 102.865 L 160.4 102.865 L 160.4 105.09 L 167.1 105.09 L 167.1 108.408 L 173.8 108.408 L 173.8 110.86 L 180.5 110.86 L 180.5 114.098 L 187.2 114.098 L 187.2 116.588 L 193.9 116.588 L 193.9 119.61 L 200.6 119.61 L 200.6 122.234 L 207.3 122.234 L 207.3 125.355 L 214 125.355 L 214 128.084 L 220.7 128.084 L 220.7 130.936 L 227.4 130.936 L 227.4 133.519 L 234.1 133.519 L 234.1 136.456 L 240.8 136.456 L 240.8 139.38 L 247.5 139.38 L 247.5 142.299 L 254.2 142.299 L 254.2 144.806 L 260.9 144.806 L 260.9 147.269 L 267.6 147.269 L 267.6 149.87 L 274.3 149.87 L 274.3 152.756 L 281 152.756 L 281 155.468 L 287.7 155.468 L 287.7 157.761 L 294.4 157.761 L 294.4 159.763 L 301.1 159.763 L 301.1 162.087 L 307.8 162.087 L 307.8 165.072 L 314.5 165.072 L 314.5 168.521 L 321.2 168.521 L 321.2 171.861 L 327.9 171.861 L 327.9 174.823 L 334.6 174.823 L 334.6 177.655 L 341.3 177.655 L 341.3 180.795 L 348 180.795 L 348 184.259 L 354.7 184.259 L 354.7 187.523 L 361.4 187.523 L 361.4 189.992 L 368.1 189.992 L 368.1 191.645 L 374.8 191.645 L 374.8 193.182 L 381.5 193.182 L 381.5 195.535 L 388.2 195.535 L 388.2 199.125 L 394.9 199.125 L 394.9 203.501 L 401.6 203.501 L 401.6 207.638 L 408.3 207.638 L 408.3 210.668 L 415 210.668 L 415 212.478 L 421.7 212.478 L 421.7 213.772 L 428.4 213.772 L 428.4 215.572 L 435.1 215.572 L 435.1 218.525 L 441.8 218.525 L 441.8 222.49 L 448.5 222.49 L 448.5 226.667 L 455.2 226.667 L 455.2 230.179 L 461.9 230.179 L 461.9 232.667 L 468.6 232.667 L 468.6 234.486 L 475.3 234.486 L 475.3 236.374 L 482 236.374 L 482 238.882 L 488.7 238.882 L 488.7 242.014 L 495.4 242.014 L 495.4 245.351 L 502.1 245.351 L 502.1 248.489 L 508.8 248.489 L 508.8 251.372 L 515.5 251.372 L 515.5 254.232 L 522.2 254.232 L 522.2 257.255 L 528.9 257.255 L 528.9 260.353 L 535.6 260.353 L 535.6 263.266 L 542.3 263.266 L 542.3 265.864 L 549 265.864 L 549 268.285 L 555.7 268.285 L 555.7 270.793 L 562.4 270.793 L 562.4 273.504 L 569.1 273.504 L 569.1 276.324 L 575.8 276.324 L 575.8 279.094 L 582.5 279.094 L 582.5 281.788 L 589.2 281.788 L 589.2 284.5 L 595.9 284.5 L 595.9 287.305 L 602.6 287.305 L 602.6 290.172 L 609.3 290.172 L 609.3 293.019 L 616 293.019 L 616 295.82 L 622.7 295.82 L 622.7 298.615 L 629.4 298.615 L 629.4 301.44 L 636.1 301.44 L 636.1 304.287 L 642.8 304.287 L 642.8 307.123 L 649.5 307.123 L 649.5 309.941 L 656.2 309.941 L 656.2 312.758 L 662.9 312.758 L 662.9 315.587 L 669.6 315.587 L 669.6 318.42 L 676.3 318.42 L 676.3 321.247 L 683 321.247 L 683 324.07 L 689.7 324.07 L 689.7 326.894 L 696.4 326.894 L 696.4 329.722 L 703.1 329.722 L 703.1 332.548 L 709.8 332.548 L 709.8 335.374 L 716.5 335.374 L 716.5 338.199 L 723.2 338.199 L 723.2 341.025 L 729.9 341.025 L 729.9 343.85 L 736.6 343.85 L 736.6 346.676 L 743.3 346.676 L 743.3 349.5 L 750 349.5 " fill="none" stroke="#58a6ff" stroke-width="2.5"/>
  <!-- 1D CFD Spatial Cell Colormap Strip -->
  <rect x="80" y="374.5" width="6.7" height="35" fill="#900000" stroke="rgba(13,17,23,0.5)" stroke-width="0.5"/>
  <rect x="86.7" y="374.5" width="6.7" height="35" fill="#910000" stroke="rgba(13,17,23,0.5)" stroke-width="0.5"/>
  <rect x="93.4" y="374.5" width="6.7" height="35" fill="#920000" stroke="rgba(13,17,23,0.5)" stroke-width="0.5"/>
  <rect x="100.1" y="374.5" width="6.7" height="35" fill="#970000" stroke="rgba(13,17,23,0.5)" stroke-width="0.5"/>
  <rect x="106.8" y="374.5" width="6.7" height="35" fill="#990000" stroke="rgba(13,17,23,0.5)" stroke-width="0.5"/>
  <rect x="113.5" y="374.5" width="6.7" height="35" fill="#a00000" stroke="rgba(13,17,23,0.5)" stroke-width="0.5"/>
  <rect x="120.2" y="374.5" width="6.7" height="35" fill="#a30000" stroke="rgba(13,17,23,0.5)" stroke-width="0.5"/>
  <rect x="126.9" y="374.5" width="6.7" height="35" fill="#ab0000" stroke="rgba(13,17,23,0.5)" stroke-width="0.5"/>
  <rect x="133.6" y="374.5" width="6.7" height="35" fill="#af0000" stroke="rgba(13,17,23,0.5)" stroke-width="0.5"/>
  <rect x="140.3" y="374.5" width="6.7" height="35" fill="#b80000" stroke="rgba(13,17,23,0.5)" stroke-width="0.5"/>
  <rect x="147" y="374.5" width="6.7" height="35" fill="#bd0000" stroke="rgba(13,17,23,0.5)" stroke-width="0.5"/>
  <rect x="153.7" y="374.5" width="6.7" height="35" fill="#c50000" stroke="rgba(13,17,23,0.5)" stroke-width="0.5"/>
  <rect x="160.4" y="374.5" width="6.7" height="35" fill="#cb0000" stroke="rgba(13,17,23,0.5)" stroke-width="0.5"/>
  <rect x="167.1" y="374.5" width="6.7" height="35" fill="#d20000" stroke="rgba(13,17,23,0.5)" stroke-width="0.5"/>
  <rect x="173.8" y="374.5" width="6.7" height="35" fill="#d80000" stroke="rgba(13,17,23,0.5)" stroke-width="0.5"/>
  <rect x="180.5" y="374.5" width="6.7" height="35" fill="#df0000" stroke="rgba(13,17,23,0.5)" stroke-width="0.5"/>
  <rect x="187.2" y="374.5" width="6.7" height="35" fill="#e40000" stroke="rgba(13,17,23,0.5)" stroke-width="0.5"/>
  <rect x="193.9" y="374.5" width="6.7" height="35" fill="#ea0000" stroke="rgba(13,17,23,0.5)" stroke-width="0.5"/>
  <rect x="200.6" y="374.5" width="6.7" height="35" fill="#ef0000" stroke="rgba(13,17,23,0.5)" stroke-width="0.5"/>
  <rect x="207.3" y="374.5" width="6.7" height="35" fill="#f40001" stroke="rgba(13,17,23,0.5)" stroke-width="0.5"/>
  <rect x="214" y="374.5" width="6.7" height="35" fill="#f80003" stroke="rgba(13,17,23,0.5)" stroke-width="0.5"/>
  <rect x="220.7" y="374.5" width="6.7" height="35" fill="#fc0005" stroke="rgba(13,17,23,0.5)" stroke-width="0.5"/>
  <rect x="227.4" y="374.5" width="6.7" height="35" fill="#ff0006" stroke="rgba(13,17,23,0.5)" stroke-width="0.5"/>
  <rect x="234.1" y="374.5" width="6.7" height="35" fill="#ff0008" stroke="rgba(13,17,23,0.5)" stroke-width="0.5"/>
  <rect x="240.8" y="374.5" width="6.7" height="35" fill="#ff000a" stroke="rgba(13,17,23,0.5)" stroke-width="0.5"/>
  <rect x="247.5" y="374.5" width="6.7" height="35" fill="#ff000b" stroke="rgba(13,17,23,0.5)" stroke-width="0.5"/>
  <rect x="254.2" y="374.5" width="6.7" height="35" fill="#ff000d" stroke="rgba(13,17,23,0.5)" stroke-width="0.5"/>
  <rect x="260.9" y="374.5" width="6.7" height="35" fill="#ff000e" stroke="rgba(13,17,23,0.5)" stroke-width="0.5"/>
  <rect x="267.6" y="374.5" width="6.7" height="35" fill="#ff000f" stroke="rgba(13,17,23,0.5)" stroke-width="0.5"/>
  <rect x="274.3" y="374.5" width="6.7" height="35" fill="#ff0011" stroke="rgba(13,17,23,0.5)" stroke-width="0.5"/>
  <rect x="281" y="374.5" width="6.7" height="35" fill="#ff0012" stroke="rgba(13,17,23,0.5)" stroke-width="0.5"/>
  <rect x="287.7" y="374.5" width="6.7" height="35" fill="#ff0014" stroke="rgba(13,17,23,0.5)" stroke-width="0.5"/>
  <rect x="294.4" y="374.5" width="6.7" height="35" fill="#ff0015" stroke="rgba(13,17,23,0.5)" stroke-width="0.5"/>
  <rect x="301.1" y="374.5" width="6.7" height="35" fill="#ff0016" stroke="rgba(13,17,23,0.5)" stroke-width="0.5"/>
  <rect x="307.8" y="374.5" width="6.7" height="35" fill="#fb0c18" stroke="rgba(13,17,23,0.5)" stroke-width="0.5"/>
  <rect x="314.5" y="374.5" width="6.7" height="35" fill="#f6231a" stroke="rgba(13,17,23,0.5)" stroke-width="0.5"/>
  <rect x="321.2" y="374.5" width="6.7" height="35" fill="#f1381d" stroke="rgba(13,17,23,0.5)" stroke-width="0.5"/>
  <rect x="327.9" y="374.5" width="6.7" height="35" fill="#ec491f" stroke="rgba(13,17,23,0.5)" stroke-width="0.5"/>
  <rect x="334.6" y="374.5" width="6.7" height="35" fill="#e65921" stroke="rgba(13,17,23,0.5)" stroke-width="0.5"/>
  <rect x="341.3" y="374.5" width="6.7" height="35" fill="#e06924" stroke="rgba(13,17,23,0.5)" stroke-width="0.5"/>
  <rect x="348" y="374.5" width="6.7" height="35" fill="#d87a27" stroke="rgba(13,17,23,0.5)" stroke-width="0.5"/>
  <rect x="354.7" y="374.5" width="6.7" height="35" fill="#d0882a" stroke="rgba(13,17,23,0.5)" stroke-width="0.5"/>
  <rect x="361.4" y="374.5" width="6.7" height="35" fill="#ca932d" stroke="rgba(13,17,23,0.5)" stroke-width="0.5"/>
  <rect x="368.1" y="374.5" width="6.7" height="35" fill="#c6992e" stroke="rgba(13,17,23,0.5)" stroke-width="0.5"/>
  <rect x="374.8" y="374.5" width="6.7" height="35" fill="#c29f30" stroke="rgba(13,17,23,0.5)" stroke-width="0.5"/>
  <rect x="381.5" y="374.5" width="6.7" height="35" fill="#bca733" stroke="rgba(13,17,23,0.5)" stroke-width="0.5"/>
  <rect x="388.2" y="374.5" width="6.7" height="35" fill="#b2b337" stroke="rgba(13,17,23,0.5)" stroke-width="0.5"/>
  <rect x="394.9" y="374.5" width="6.7" height="35" fill="#a6bf3d" stroke="rgba(13,17,23,0.5)" stroke-width="0.5"/>
  <rect x="401.6" y="374.5" width="6.7" height="35" fill="#9ac943" stroke="rgba(13,17,23,0.5)" stroke-width="0.5"/>
  <rect x="408.3" y="374.5" width="6.7" height="35" fill="#91d048" stroke="rgba(13,17,23,0.5)" stroke-width="0.5"/>
  <rect x="415" y="374.5" width="6.7" height="35" fill="#8cd34b" stroke="rgba(13,17,23,0.5)" stroke-width="0.5"/>
  <rect x="421.7" y="374.5" width="6.7" height="35" fill="#89d64d" stroke="rgba(13,17,23,0.5)" stroke-width="0.5"/>
  <rect x="428.4" y="374.5" width="6.7" height="35" fill="#84d950" stroke="rgba(13,17,23,0.5)" stroke-width="0.5"/>
  <rect x="435.1" y="374.5" width="6.7" height="35" fill="#7cdd55" stroke="rgba(13,17,23,0.5)" stroke-width="0.5"/>
  <rect x="441.8" y="374.5" width="6.7" height="35" fill="#71e25c" stroke="rgba(13,17,23,0.5)" stroke-width="0.5"/>
  <rect x="448.5" y="374.5" width="6.7" height="35" fill="#66e565" stroke="rgba(13,17,23,0.5)" stroke-width="0.5"/>
  <rect x="455.2" y="374.5" width="6.7" height="35" fill="#5de86c" stroke="rgba(13,17,23,0.5)" stroke-width="0.5"/>
  <rect x="461.9" y="374.5" width="6.7" height="35" fill="#57e971" stroke="rgba(13,17,23,0.5)" stroke-width="0.5"/>
  <rect x="468.6" y="374.5" width="6.7" height="35" fill="#53e975" stroke="rgba(13,17,23,0.5)" stroke-width="0.5"/>
  <rect x="475.3" y="374.5" width="6.7" height="35" fill="#4fe979" stroke="rgba(13,17,23,0.5)" stroke-width="0.5"/>
  <rect x="482" y="374.5" width="6.7" height="35" fill="#4ae97f" stroke="rgba(13,17,23,0.5)" stroke-width="0.5"/>
  <rect x="488.7" y="374.5" width="6.7" height="35" fill="#44e986" stroke="rgba(13,17,23,0.5)" stroke-width="0.5"/>
  <rect x="495.4" y="374.5" width="6.7" height="35" fill="#3de78e" stroke="rgba(13,17,23,0.5)" stroke-width="0.5"/>
  <rect x="502.1" y="374.5" width="6.7" height="35" fill="#38e595" stroke="rgba(13,17,23,0.5)" stroke-width="0.5"/>
  <rect x="508.8" y="374.5" width="6.7" height="35" fill="#34e39c" stroke="rgba(13,17,23,0.5)" stroke-width="0.5"/>
  <rect x="515.5" y="374.5" width="6.7" height="35" fill="#30e1a3" stroke="rgba(13,17,23,0.5)" stroke-width="0.5"/>
  <rect x="522.2" y="374.5" width="6.7" height="35" fill="#2ddeab" stroke="rgba(13,17,23,0.5)" stroke-width="0.5"/>
  <rect x="528.9" y="374.5" width="6.7" height="35" fill="#2adab2" stroke="rgba(13,17,23,0.5)" stroke-width="0.5"/>
  <rect x="535.6" y="374.5" width="6.7" height="35" fill="#28d6b9" stroke="rgba(13,17,23,0.5)" stroke-width="0.5"/>
  <rect x="542.3" y="374.5" width="6.7" height="35" fill="#26d2bf" stroke="rgba(13,17,23,0.5)" stroke-width="0.5"/>
  <rect x="549" y="374.5" width="6.7" height="35" fill="#25cfc5" stroke="rgba(13,17,23,0.5)" stroke-width="0.5"/>
  <rect x="555.7" y="374.5" width="6.7" height="35" fill="#25cbcb" stroke="rgba(13,17,23,0.5)" stroke-width="0.5"/>
  <rect x="562.4" y="374.5" width="6.7" height="35" fill="#24c6d1" stroke="rgba(13,17,23,0.5)" stroke-width="0.5"/>
  <rect x="569.1" y="374.5" width="6.7" height="35" fill="#25c1d7" stroke="rgba(13,17,23,0.5)" stroke-width="0.5"/>
  <rect x="575.8" y="374.5" width="6.7" height="35" fill="#25bbdc" stroke="rgba(13,17,23,0.5)" stroke-width="0.5"/>
  <rect x="582.5" y="374.5" width="6.7" height="35" fill="#26b6e1" stroke="rgba(13,17,23,0.5)" stroke-width="0.5"/>
  <rect x="589.2" y="374.5" width="6.7" height="35" fill="#28b0e6" stroke="rgba(13,17,23,0.5)" stroke-width="0.5"/>
  <rect x="595.9" y="374.5" width="6.7" height="35" fill="#29aaea" stroke="rgba(13,17,23,0.5)" stroke-width="0.5"/>
  <rect x="602.6" y="374.5" width="6.7" height="35" fill="#2ca4ee" stroke="rgba(13,17,23,0.5)" stroke-width="0.5"/>
  <rect x="609.3" y="374.5" width="6.7" height="35" fill="#2e9ef1" stroke="rgba(13,17,23,0.5)" stroke-width="0.5"/>
  <rect x="616" y="374.5" width="6.7" height="35" fill="#3197f4" stroke="rgba(13,17,23,0.5)" stroke-width="0.5"/>
  <rect x="622.7" y="374.5" width="6.7" height="35" fill="#3490f5" stroke="rgba(13,17,23,0.5)" stroke-width="0.5"/>
  <rect x="629.4" y="374.5" width="6.7" height="35" fill="#378af6" stroke="rgba(13,17,23,0.5)" stroke-width="0.5"/>
  <rect x="636.1" y="374.5" width="6.7" height="35" fill="#3a83f6" stroke="rgba(13,17,23,0.5)" stroke-width="0.5"/>
  <rect x="642.8" y="374.5" width="6.7" height="35" fill="#3d7cf5" stroke="rgba(13,17,23,0.5)" stroke-width="0.5"/>
  <rect x="649.5" y="374.5" width="6.7" height="35" fill="#4074f3" stroke="rgba(13,17,23,0.5)" stroke-width="0.5"/>
  <rect x="656.2" y="374.5" width="6.7" height="35" fill="#426def" stroke="rgba(13,17,23,0.5)" stroke-width="0.5"/>
  <rect x="662.9" y="374.5" width="6.7" height="35" fill="#4566ea" stroke="rgba(13,17,23,0.5)" stroke-width="0.5"/>
  <rect x="669.6" y="374.5" width="6.7" height="35" fill="#475fe4" stroke="rgba(13,17,23,0.5)" stroke-width="0.5"/>
  <rect x="676.3" y="374.5" width="6.7" height="35" fill="#4958dc" stroke="rgba(13,17,23,0.5)" stroke-width="0.5"/>
  <rect x="683" y="374.5" width="6.7" height="35" fill="#4a51d2" stroke="rgba(13,17,23,0.5)" stroke-width="0.5"/>
  <rect x="689.7" y="374.5" width="6.7" height="35" fill="#4a4ac7" stroke="rgba(13,17,23,0.5)" stroke-width="0.5"/>
  <rect x="696.4" y="374.5" width="6.7" height="35" fill="#4a43ba" stroke="rgba(13,17,23,0.5)" stroke-width="0.5"/>
  <rect x="703.1" y="374.5" width="6.7" height="35" fill="#483caa" stroke="rgba(13,17,23,0.5)" stroke-width="0.5"/>
  <rect x="709.8" y="374.5" width="6.7" height="35" fill="#463699" stroke="rgba(13,17,23,0.5)" stroke-width="0.5"/>
  <rect x="716.5" y="374.5" width="6.7" height="35" fill="#422f85" stroke="rgba(13,17,23,0.5)" stroke-width="0.5"/>
  <rect x="723.2" y="374.5" width="6.7" height="35" fill="#3d296e" stroke="rgba(13,17,23,0.5)" stroke-width="0.5"/>
  <rect x="729.9" y="374.5" width="6.7" height="35" fill="#362355" stroke="rgba(13,17,23,0.5)" stroke-width="0.5"/>
  <rect x="736.6" y="374.5" width="6.7" height="35" fill="#2d1d3a" stroke="rgba(13,17,23,0.5)" stroke-width="0.5"/>
  <rect x="743.3" y="374.5" width="6.7" height="35" fill="#22171b" stroke="rgba(13,17,23,0.5)" stroke-width="0.5"/>
  <line x1="80" y1="409.5" x2="80" y2="414.5" stroke="#8b949e" stroke-width="1"/>
  <text x="80" y="427.5" text-anchor="middle" class="legend-tick">0.00</text>
  <line x1="214.00" y1="409.50" x2="214.00" y2="414.50" stroke="#8b949e" stroke-width="1"/>
  <text x="214.00" y="427.50" text-anchor="middle" class="legend-tick">200.00</text>
  <line x1="348.00" y1="409.50" x2="348.00" y2="414.50" stroke="#8b949e" stroke-width="1"/>
  <text x="348.00" y="427.50" text-anchor="middle" class="legend-tick">400.00</text>
  <line x1="482.00" y1="409.50" x2="482.00" y2="414.50" stroke="#8b949e" stroke-width="1"/>
  <text x="482.00" y="427.50" text-anchor="middle" class="legend-tick">600.00</text>
  <line x1="616.00" y1="409.50" x2="616.00" y2="414.50" stroke="#8b949e" stroke-width="1"/>
  <text x="616.00" y="427.50" text-anchor="middle" class="legend-tick">800.00</text>
  <line x1="750.00" y1="409.50" x2="750.00" y2="414.50" stroke="#8b949e" stroke-width="1"/>
  <text x="750.00" y="427.50" text-anchor="middle" class="legend-tick">1000.00</text>
  <text x="415.00" y="443.50" text-anchor="middle" class="legend-title">Spatial Coordinate x (m)</text>
  <defs>
    <linearGradient id="vv_colorbar_grad" x1="0%" y1="100%" x2="0%" y2="0%">
      <stop offset="0.0%" stop-color="#22171b"/>
      <stop offset="10.0%" stop-color="#4957db"/>
      <stop offset="20.0%" stop-color="#2f9cf2"/>
      <stop offset="30.0%" stop-color="#27d3bf"/>
      <stop offset="40.0%" stop-color="#4ce97c"/>
      <stop offset="50.0%" stop-color="#94ce46"/>
      <stop offset="60.0%" stop-color="#de6e25"/>
      <stop offset="70.0%" stop-color="#ff0012"/>
      <stop offset="80.0%" stop-color="#f50002"/>
      <stop offset="90.0%" stop-color="#ba0000"/>
      <stop offset="100.0%" stop-color="#900000"/>
    </linearGradient>
  </defs>
  <!-- Colorbar Container -->
  <rect x="785" y="90" width="18" height="380" fill="url(#vv_colorbar_grad)" stroke="#30363d" stroke-width="1" rx="2"/>
  <text x="794" y="78" text-anchor="middle" class="legend-title">Water Pressure</text>
  <text x="794" y="88" text-anchor="middle" class="legend-tick">[Pa]</text>
  <line x1="803" y1="470.0" x2="808" y2="470.0" stroke="#8b949e" stroke-width="1"/>
  <text x="811" y="473.5" class="legend-tick">1.99e+05</text>
  <line x1="803" y1="375.0" x2="808" y2="375.0" stroke="#8b949e" stroke-width="1"/>
  <text x="811" y="378.5" class="legend-tick">2.63e+06</text>
  <line x1="803" y1="280.0" x2="808" y2="280.0" stroke="#8b949e" stroke-width="1"/>
  <text x="811" y="283.5" class="legend-tick">5.05e+06</text>
  <line x1="803" y1="185.0" x2="808" y2="185.0" stroke="#8b949e" stroke-width="1"/>
  <text x="811" y="188.5" class="legend-tick">7.48e+06</text>
  <line x1="803" y1="90.0" x2="808" y2="90.0" stroke="#8b949e" stroke-width="1"/>
  <text x="811" y="93.5" class="legend-tick">9.91e+06</text>
</svg>
